<!-- Generator: Adobe Illustrator 19.2.0, SVG Export Plug-In  -->
<svg version="1.1"
	 xmlns="http://www.w3.org/2000/svg" xmlns:xlink="http://www.w3.org/1999/xlink" xmlns:a="http://ns.adobe.com/AdobeSVGViewerExtensions/3.0/"
	 x="0px" y="0px" width="428.527px" height="164.928px" viewBox="0 0 428.527 164.928"
	 style="enable-background:new 0 0 428.527 164.928;" xml:space="preserve">
<defs>
</defs>
<g>
	<path d="M110.694,79.739c-23.523,0-42.594,19.07-42.594,42.595c0,23.523,19.07,42.594,42.594,42.594
		c23.524,0,42.595-19.07,42.595-42.594C153.289,98.81,134.218,79.739,110.694,79.739z M110.694,140.577
		c-10.075,0-18.244-8.168-18.244-18.243c0-10.076,8.169-18.245,18.244-18.245c10.076,0,18.244,8.168,18.244,18.245
		C128.938,132.409,120.77,140.577,110.694,140.577z"/>
	<path d="M343.172,79.739c-23.523,0-42.594,19.07-42.594,42.595c0,23.523,19.07,42.594,42.594,42.594
		c23.524,0,42.595-19.07,42.595-42.594C385.767,98.81,366.696,79.739,343.172,79.739z M343.172,140.577
		c-10.075,0-18.243-8.168-18.243-18.243c0-10.076,8.168-18.245,18.243-18.245c10.076,0,18.244,8.168,18.244,18.245
		C361.416,132.409,353.248,140.577,343.172,140.577z"/>
	<path d="M158.728,86.774c7.386,9.947,11.771,22.247,11.771,35.56c0,11.077-3.038,21.453-8.309,30.359h129.485
		c-5.27-8.906-8.309-19.282-8.309-30.359c0-13.313,4.386-25.613,11.772-35.56H158.728z"/>
	<path d="M326.857,64.809l13.242-44.588c0,0-19.499-6.246-30.36,1.792c-7.072,5.234-15.247,17.929-20.596,31.946
		c-2.495,6.54-3.543,7.883-6.153,15.604h32.132C318.822,67.589,322.745,65.977,326.857,64.809z"/>
	<path d="M406.723,65.033h10.354V53.214h-10.353c-2.28-5.209-7.474-8.853-13.523-8.853h-42.317l-5.413,18.225
		c12.181,0.464,23.435,4.585,32.701,11.298H393.2C399.25,73.884,404.443,70.241,406.723,65.033z"/>
	<path d="M418.201,101.948h-18.806c2.316,6.365,3.582,13.23,3.582,20.386c0,7.155-1.267,14.019-3.582,20.385h18.806
		c5.701,0,10.326-4.623,10.326-10.327v-20.117C428.527,106.572,423.902,101.948,418.201,101.948z"/>
	<path d="M138.781,69.564c0,0,25.126-0.075,31.607,0c6.481,0.075,8.01-11.175,22.257-21.067c0.232-0.161,0.442-0.332,0.663-0.498
		l3.382,9.429c1.56,4.347,6.349,6.608,10.696,5.048l2.396-0.859c4.346-1.56,6.607-6.349,5.048-10.695L198.553,5.542
		c-1.559-4.348-6.349-6.609-10.695-5.049l-2.397,0.858c-4.346,1.56-6.607,6.349-5.048,10.695l4.014,11.189
		c-4.53,1.467-10.496,3.387-18.396,5.917c-47.874,2.33-74.905,36.691-74.905,36.691c6.136-2.136,12.714-3.317,19.569-3.317
		C120.843,62.528,130.4,65.084,138.781,69.564z"/>
	<path d="M58.396,93.416H47.541c-15.429,10.441-28.854,22.647-28.854,22.647l-11.803,6.588C2.899,124.728,0,125.733,0,129.535
		v16.273c0,3.802,3.082,6.884,6.884,6.884h52.313c-5.271-8.906-8.309-19.282-8.309-30.359
		C50.889,111.844,53.627,101.992,58.396,93.416z"/>
</g>
</svg>